<svg width="90" height="89" viewBox="0 0 90 89" fill="none" xmlns="http://www.w3.org/2000/svg">
<path d="M81.8182 64.7273V28.3182H24.5455V64.7273H81.8182ZM81.8182 8.09091C83.9881 8.09091 86.0692 8.94334 87.6036 10.4607C89.138 11.978 90 14.036 90 16.1818V64.7273C90 66.8731 89.138 68.9311 87.6036 70.4484C86.0692 71.9657 83.9881 72.8182 81.8182 72.8182H24.5455C22.3755 72.8182 20.2944 71.9657 18.76 70.4484C17.2256 68.9311 16.3636 66.8731 16.3636 64.7273V16.1818C16.3636 14.036 17.2256 11.978 18.76 10.4607C20.2944 8.94334 22.3755 8.09091 24.5455 8.09091H28.6364V0H36.8182V8.09091H69.5455V0H77.7273V8.09091H81.8182ZM67.6227 40.6973L49.4591 58.6591L38.4955 47.8173L42.8318 43.5291L49.4591 50.0827L63.2864 36.4091L67.6227 40.6973ZM8.18182 80.9091H65.4545V89H8.18182C6.01186 89 3.93079 88.1476 2.3964 86.6302C0.862011 85.1129 0 83.0549 0 80.9091V32.3636H8.18182V80.9091Z" fill="black"/>
</svg>
