<svg width="41" height="44" viewBox="0 0 41 44" fill="none" xmlns="http://www.w3.org/2000/svg">
<path d="M22.8429 0C23.6453 0 24.4155 0.31075 24.969 0.858L34.3404 10.285C34.8559 10.7965 35.1429 11.4757 35.1429 12.1797V35.75C35.1429 36.4793 34.8343 37.1788 34.2851 37.6945C33.7359 38.2103 32.991 38.5 32.2143 38.5H2.92857C2.15187 38.5 1.40697 38.2103 0.857759 37.6945C0.308545 37.1788 0 36.4793 0 35.75V2.75C0 2.02065 0.308545 1.32118 0.857759 0.805456C1.40697 0.289731 2.15187 0 2.92857 0L22.8429 0ZM32.2143 13.75H21.9643C21.5759 13.75 21.2035 13.6051 20.9289 13.3473C20.6543 13.0894 20.5 12.7397 20.5 12.375V2.75H2.92857V35.75H32.2143V13.75ZM10.25 30.25C9.86165 30.25 9.4892 30.1051 9.21459 29.8473C8.93999 29.5894 8.78572 29.2397 8.78572 28.875C8.78572 28.5103 8.93999 28.1606 9.21459 27.9027C9.4892 27.6449 9.86165 27.5 10.25 27.5H24.8929C25.2812 27.5 25.6537 27.6449 25.9283 27.9027C26.2029 28.1606 26.3571 28.5103 26.3571 28.875C26.3571 29.2397 26.2029 29.5894 25.9283 29.8473C25.6537 30.1051 25.2812 30.25 24.8929 30.25H10.25ZM10.25 22C9.86165 22 9.4892 21.8551 9.21459 21.5973C8.93999 21.3394 8.78572 20.9897 8.78572 20.625C8.78572 20.2603 8.93999 19.9106 9.21459 19.6527C9.4892 19.3949 9.86165 19.25 10.25 19.25H24.8929C25.2812 19.25 25.6537 19.3949 25.9283 19.6527C26.2029 19.9106 26.3571 20.2603 26.3571 20.625C26.3571 20.9897 26.2029 21.3394 25.9283 21.5973C25.6537 21.8551 25.2812 22 24.8929 22H10.25ZM13.1786 44C12.7902 44 12.4178 43.8551 12.1432 43.5973C11.8686 43.3394 11.7143 42.9897 11.7143 42.625C11.7143 42.2603 11.8686 41.9106 12.1432 41.6527C12.4178 41.3949 12.7902 41.25 13.1786 41.25H38.0714V17.875C38.0714 17.5103 38.2257 17.1606 38.5003 16.9027C38.7749 16.6449 39.1474 16.5 39.5357 16.5C39.9241 16.5 40.2965 16.6449 40.5711 16.9027C40.8457 17.1606 41 17.5103 41 17.875V41.25C41 41.9793 40.6915 42.6788 40.1422 43.1945C39.593 43.7103 38.8481 44 38.0714 44H13.1786Z" fill="black"/>
</svg>
