<svg width="158" height="113" viewBox="0 0 158 113" fill="none" xmlns="http://www.w3.org/2000/svg">
<path d="M158 37.6666V32.9583H111.917V37.6666H131.667V42.3749H125.083V51.7916H103.358L93.4768 39.5499H64.8787L55.0037 51.7916H32.9167V42.3749H26.3333V37.6666H46.0833V32.9583H0V37.6666H19.75V42.3749H13.1667V65.9166H32.9167V61.2083H53.7661L55.1881 62.9692C46.5185 66.1133 39.2343 70.9117 34.1416 76.8333C29.049 82.7549 26.3465 89.5687 26.3333 96.5207C26.3333 97.1451 26.6801 97.7439 27.2974 98.1854C27.9147 98.6269 28.752 98.8749 29.625 98.8749C30.498 98.8749 31.3353 98.6269 31.9526 98.1854C32.5699 97.7439 32.9167 97.1451 32.9167 96.5207C32.9281 90.395 35.326 84.3928 39.8414 79.1874C44.3568 73.982 50.8109 69.7795 58.4798 67.0513L64.8787 74.9754H93.4768L99.7968 67.1455C107.394 69.8942 113.777 74.094 118.241 79.279C122.704 84.4641 125.073 90.4319 125.083 96.5207C125.083 97.1451 125.43 97.7439 126.047 98.1854C126.665 98.6269 127.502 98.8749 128.375 98.8749C129.248 98.8749 130.085 98.6269 130.703 98.1854C131.32 97.7439 131.667 97.1451 131.667 96.5207C131.655 89.6059 128.983 82.8266 123.944 76.9253C118.904 71.024 111.691 66.2283 103.095 63.0633L104.589 61.2083H125.083V65.9166H144.833V42.3749H138.25V37.6666H158Z" fill="black"/>
</svg>
