<svg width="40" height="40" viewBox="0 0 40 40" fill="none" xmlns="http://www.w3.org/2000/svg">
<path d="M28.538 40C28.0065 40 27.4969 39.7891 27.1211 39.4137C26.7453 39.0383 26.5342 38.5292 26.5342 37.9983V32.7938C26.5964 32.1951 26.5323 31.5901 26.3459 31.0177C26.1595 30.4454 25.855 29.9184 25.4521 29.471C25.2026 29.2007 25.0325 28.867 24.9603 28.5065C24.8882 28.146 24.9168 27.7726 25.0431 27.4273C25.1693 27.0819 25.3884 26.778 25.6761 26.5489C25.9639 26.3197 26.3093 26.1741 26.6744 26.1281C31.5638 25.5476 36.0724 23.9862 36.0724 15.519C36.0739 13.9378 35.6068 12.3915 34.7298 11.0751C33.9206 9.86336 33.6252 8.38056 33.9083 6.9516C34.0889 6.01944 34.0889 5.06133 33.9083 4.12917C32.4078 4.63596 30.995 5.37199 29.7202 6.31105C29.4792 6.48203 29.2033 6.59761 28.9123 6.64952C28.6213 6.70144 28.3224 6.68838 28.037 6.61131C24.4208 5.59055 20.5921 5.59055 16.9759 6.61131C16.6905 6.68838 16.3916 6.70144 16.1006 6.64952C15.8096 6.59761 15.5337 6.48203 15.2927 6.31105C14.0101 5.36111 12.5823 4.62433 11.0646 4.12917C10.874 5.06035 10.874 6.02042 11.0646 6.9516C11.3272 8.39855 11.0184 9.89088 10.2029 11.1152C9.32977 12.4408 8.86314 13.9922 8.86035 15.579C8.86035 23.3657 12.6276 25.4475 18.2784 26.1681C18.6481 26.2139 18.9978 26.3619 19.288 26.5952C19.5783 26.8286 19.7977 27.1382 19.9215 27.4892C20.038 27.8299 20.0604 28.1956 19.9864 28.5479C19.9123 28.9001 19.7445 29.2259 19.5007 29.491C19.111 29.9071 18.8118 30.3995 18.6221 30.937C18.4324 31.4744 18.3563 32.0453 18.3986 32.6137V37.9983C18.3986 38.5292 18.1875 39.0383 17.8117 39.4137C17.4359 39.7891 16.9262 40 16.3948 40C15.8633 40 15.3536 39.7891 14.9778 39.4137C14.602 39.0383 14.3909 38.5292 14.3909 37.9983V36.8573C12.4219 37.0835 10.4274 36.8199 8.58498 36.09C6.74257 35.3601 5.10936 34.1865 3.83073 32.6737C3.17348 31.946 2.38492 31.3484 1.50628 30.9122C1.25103 30.8465 1.01123 30.7312 0.800583 30.5729C0.589936 30.4146 0.412562 30.2164 0.278589 29.9896C0.144617 29.7629 0.0566688 29.512 0.0197669 29.2512C-0.017135 28.9905 -0.00226791 28.7251 0.0635189 28.4701C0.129306 28.2151 0.244724 27.9756 0.403184 27.7651C0.561644 27.5547 0.760043 27.3775 0.987052 27.2437C1.21406 27.1099 1.46524 27.022 1.72623 26.9851C1.98723 26.9483 2.25294 26.9631 2.5082 27.0289C4.04964 27.5898 5.42698 28.5254 6.51586 29.7512C8.51969 31.7529 10.5235 33.5144 14.3308 32.7938C14.2639 31.7191 14.4208 30.6422 14.7917 29.6311C10.6638 28.5902 4.77253 25.6276 4.77253 15.619C4.76725 13.2483 5.46447 10.929 6.77636 8.95332C7.02003 8.58862 7.11335 8.14402 7.03686 7.71225C6.63194 5.55154 6.8616 3.31995 7.69812 1.28673C7.81179 1.01563 7.98382 0.772854 8.202 0.575659C8.42019 0.378463 8.67916 0.231685 8.96054 0.145751C9.64184 -0.0544212 12.0865 -0.454765 16.7154 2.54782C20.4625 1.64705 24.3701 1.64705 28.1172 2.54782C32.746 -0.454765 35.1907 -0.0744384 35.852 0.145751C36.1334 0.231685 36.3923 0.378463 36.6105 0.575659C36.8287 0.772854 37.0007 1.01563 37.1144 1.28673C37.9526 3.32655 38.1822 5.56502 37.7757 7.73227C37.7347 7.92754 37.733 8.12902 37.7709 8.32493C37.8087 8.52084 37.8853 8.70724 37.9961 8.87325C39.3118 10.8546 40.0092 13.1814 39.9999 15.559C39.9999 25.7077 34.1487 28.6502 29.9807 29.571C30.3479 30.6452 30.4978 31.7814 30.4216 32.9139V37.9983C30.4225 38.509 30.228 39.0008 29.8778 39.3729C29.5276 39.745 29.0483 39.9694 28.538 40Z" fill="white"/>
</svg>
