<svg width="500" height="343" viewBox="0 0 500 343" fill="none" xmlns="http://www.w3.org/2000/svg">
<g clip-path="url(#clip0_28_114)">
<path d="M315.091 11.8675C320.546 17.649 323.091 23.887 320.728 25.8649C319.637 26.7778 313.455 26.0171 305.455 24.3435C290.546 21.1484 263.819 18.7141 270 21.1484C272 21.9091 277.273 23.5827 281.819 24.6478C294.182 27.6907 292.728 30.8858 278.546 32.2551C262.909 33.6244 249.273 39.406 236.364 49.5998C224.546 59.0329 222.909 61.6194 230.182 59.3372C237.455 57.055 240.546 57.3593 239.091 60.4022C236.728 65.5752 234.364 81.3984 234.182 92.0486C234.182 102.547 237.273 112.588 242.546 118.826C244.909 121.717 245.091 121.109 244.182 112.436L243.273 102.699L258.909 115.631C267.455 122.63 274.546 128.868 274.546 129.477C274.546 129.933 271.819 131.15 268.728 132.063C263.091 133.432 263.273 133.585 273.091 133.737C286.364 133.889 289.091 134.954 289.091 139.366C289.091 142.409 288.182 143.018 284 143.018C275.819 143.018 261.455 149.864 250.182 159.45C239.637 168.426 228 181.663 235.637 176.186C237.455 174.816 241.273 172.991 244.182 172.078C248.364 170.708 249.091 170.861 249.091 173.295C249.091 174.816 246.546 180.75 243.455 186.227C238.182 195.813 237.819 197.334 238.546 209.658C239.091 219.547 240.364 224.416 243.455 228.98C245.637 232.328 246.909 233.697 246.546 232.023C246 230.35 245.091 225.785 244.364 221.677C242.728 211.484 246.728 212.244 257.455 223.96C266 233.545 271.455 242.065 273.637 249.825C275.455 255.758 272.364 255.454 251.637 247.238C193.091 224.416 170.909 196.117 180.909 157.015C182.728 150.321 185.819 142.409 188 139.67L191.819 134.65L192.364 142.257C193.091 151.994 195.637 154.277 197.455 146.821C198.728 140.431 197.455 114.871 195.455 110.611C193.091 105.894 199.819 107.72 203.637 112.893L207.273 117.914V110.611C207.273 101.786 204.364 96.7652 195.637 90.0707C189.091 85.2021 187.091 80.6377 191.455 80.6377C192.546 80.7898 196.909 81.7027 200.728 82.9199L207.819 85.0499L198.909 77.4426C194 73.3346 185.637 68.1617 180.364 66.0316C172.546 62.9887 171.091 61.7715 172.728 60.0979C173.819 58.8807 177.455 57.8157 180.546 57.5114C184.909 57.2071 180.909 55.6856 164.182 51.7298C146.909 47.6219 141.819 45.7961 141.819 43.8182C141.819 42.4489 143.637 40.7753 146 40.1667C150.546 39.1017 156 35.298 158.364 31.7986C159.637 29.6686 158 29.9729 149.455 32.8636C136.546 37.2759 128.546 37.4281 114.182 33.3201C107.091 31.3422 100.364 30.4293 96.364 31.0379C72.9095 33.9287 71.6367 33.9287 62.7276 30.5815C58.0004 28.9079 52.9095 27.3864 51.4549 27.3864C47.4549 27.3864 38.1822 36.363 38.1822 40.3188C38.1822 43.2096 39.4549 43.8182 46.7276 44.7311C59.0913 46.1004 69.8185 50.9691 82.7276 61.0108C88.9095 66.0316 95.4549 69.9874 97.0913 69.9874C98.9095 69.9874 103.273 68.3138 106.909 66.1837C116 61.0108 124.364 61.3151 138.546 67.4009C147.819 71.3567 151.091 73.7911 155.819 80.3334C166 94.6351 165.455 102.851 152.728 138.758C136.909 182.728 149.455 219.243 189.273 245.717C196.909 250.737 205.273 257.584 208 260.931C213.091 267.474 214.182 276.146 210.364 280.558C208.182 282.992 206.909 282.992 183.637 280.102C145.455 275.537 129.091 268.843 121.637 254.845C116.364 245.108 118 228.372 125.091 221.677C129.273 217.722 130.728 218.482 131.273 225.481L131.819 232.023L134.364 225.329C137.273 216.961 135.637 207.224 129.819 197.486C124.182 188.205 124.182 186.532 130.182 187.749C134.182 188.662 134.546 188.51 132.909 185.923C129.455 180.598 118.546 173.751 109.273 171.165C96.1822 167.513 95.6367 165.383 108 166.144C113.637 166.296 118.182 166.448 118.182 166.296C118.182 165.992 114.728 164.318 110.546 162.492C104.364 159.754 99.8186 159.145 89.6367 159.145C82.364 159.297 76.364 158.689 76.364 158.08C76.364 157.319 78.0004 155.342 80.0004 153.668C82.0004 151.994 83.0913 150.625 82.1822 150.625C79.8185 150.625 72.1822 155.342 64.364 161.58L56.9095 167.513L55.6367 158.385C54.9095 152.907 53.0913 147.886 50.9095 145.756L47.2731 142.257L49.2731 147.126C52.1822 154.429 47.2731 166.296 36.364 178.924C29.2731 187.14 27.2731 190.64 27.2731 195.204C27.2731 202.355 23.8185 209.354 17.4549 214.983C11.8185 220.004 11.8185 220.765 15.6367 227.611C19.0913 233.545 24.5458 234.458 26.5458 229.285C29.0913 222.438 35.2731 217.265 49.4549 210.419L63.8185 203.42L62.7276 195.66C61.6367 188.966 62.0004 187.444 65.0913 185.01C69.8185 181.511 81.8185 180.141 87.0913 182.576C92.9095 185.01 98.1822 195.66 98.1822 204.637C98.1822 210.114 96.5458 214.983 92.364 222.134C87.0913 230.958 86.5458 233.393 86.364 245.717C86.364 257.888 86.9095 260.475 92.0004 269.299C99.6367 282.992 106.728 289.23 124.728 298.359C133.091 302.619 140.909 307.336 141.819 309.01C143.637 311.748 143.273 311.748 132.546 310.835L121.273 309.922L125.455 314.487C128.728 318.29 129.091 319.66 127.455 322.398C123.819 327.876 113.273 326.659 100.364 319.508C86.364 311.748 77.4549 311.292 68.7276 317.986L62.7276 322.398L67.4549 322.551C71.8185 322.551 74.5458 324.985 74.5458 328.789C74.5458 329.549 72.9095 331.527 70.9095 333.201C66.1822 337.157 54.0004 337.157 42.9095 333.201L34.364 330.158L32.7276 333.962C30.5458 338.83 25.6367 340.808 15.6367 340.808C9.81854 340.808 6.90945 340.047 5.63672 338.222C4.00036 335.787 3.81854 335.787 3.63672 338.83V342.33H247.819C440.364 342.33 492.728 341.873 495.091 340.504C496.728 339.439 498.728 336.396 499.273 333.657C500.182 329.701 499.455 328.028 495.819 324.985C490 320.116 485.637 319.66 490.91 324.376C496 329.093 494.91 331.984 486.546 335.331C480 337.917 478.364 338.069 468.364 336.396C462.182 335.331 450.728 332.136 442.728 329.093C424.909 322.398 418 321.486 412.364 324.681C407.273 327.724 400.182 327.876 398.909 324.833C398.182 323.616 399.273 320.725 400.909 318.443C404 314.639 404 314.487 400.909 315.552C393.819 317.834 382 319.812 378.909 319.203C376.364 318.747 378.909 317.073 387.273 313.117C410.364 302.163 424.546 285.275 424.364 268.539C424.364 260.779 423.091 257.584 416.728 247.542C408.364 234.61 407.091 226.85 411.819 219.091C415.091 213.766 419.637 211.484 426.909 211.484C435.637 211.484 440.909 216.2 440.909 223.655V230.045L452.182 233.545C466.546 237.805 471.637 240.696 475.637 246.477C479.455 251.802 482.728 252.259 485.455 248.151C488.546 243.13 487.637 240.391 480.182 232.936C476 228.676 472.546 223.351 471.637 219.852C470.728 215.439 467.637 211.484 460.728 205.398C450 195.813 442.728 184.402 444.546 179.076C445.637 175.729 445.637 175.729 442.728 178.772C440.546 181.054 440 183.641 440.909 188.966C442.182 197.334 441.455 197.334 427.455 189.879C417.637 184.706 414.909 184.402 420.364 188.966C424.728 192.617 424.909 192.617 410.728 193.987C405.273 194.443 397.455 196.421 393.637 198.399L386.546 202.051L395.455 201.29L404.546 200.377L391.819 210.571C383.455 217.113 379.819 221.069 381.273 221.83C382.909 222.59 382.728 225.329 380.546 232.784C377.819 242.674 378.364 252.715 381.819 257.128C383.091 258.649 383.273 257.432 382.546 252.715C381.273 246.325 381.455 246.173 385.273 247.999C390.364 250.281 398.182 263.822 398.182 270.669C398.182 278.276 391.819 285.579 381.637 289.991C370.909 294.403 348.546 298.511 338.364 297.903L331.091 297.446L339.091 286.948C355.091 266.256 361.637 244.499 363.091 206.919C364.182 179.076 362.728 168.73 355.455 156.254C349.091 144.843 349.273 143.931 359.091 144.843C370 145.908 375.455 149.256 379.819 157.472C381.819 161.275 384.728 164.775 386.182 165.231C387.637 165.688 396.182 164.318 404.909 162.188C425.455 157.167 437.819 157.015 450.546 162.036L460.182 165.688L462.182 162.036C464.546 157.624 462.546 145.452 459.091 143.018C457.819 142.105 451.273 140.736 444.909 139.975C428.909 137.997 424.728 136.475 418.909 130.237C412.728 123.695 409.637 122.63 386.546 118.826C375.091 116.849 366.182 114.414 361.637 111.98C350.546 105.742 350.909 107.263 362.728 116.544L373.637 124.912L364.546 123.999C348.909 122.326 330.364 118.826 319.455 115.479C306.728 111.523 292.909 99.656 285.091 85.9628C278.909 75.0082 278.546 67.0966 284 59.185C289.819 50.6648 300.728 46.4047 314.182 47.774C326.909 48.9912 341.819 54.9249 348.182 61.0108C352 64.8144 352.728 67.2488 352.728 74.5518C352.728 85.2021 352.728 85.3542 374.546 88.8536C394.546 92.2008 407.091 97.3738 416.364 106.046C423.455 112.741 423.637 112.893 428 110.458C433.091 107.72 436.364 95.548 433.273 91.44C432.182 90.0707 426.182 85.8106 419.819 82.007C409.273 75.769 407.637 74.0954 403.091 64.5101C398 53.5556 393.637 49.4476 379.455 42.1446C370.546 37.7324 360.909 26.6257 354.546 14.3018C348.364 2.13007 351.637 14.6061 358.182 28.4514C361.273 34.8416 363.455 40.1667 363.091 40.6231C361.455 41.8403 333.091 24.9521 322 16.1276C315.455 11.1067 312.364 9.12881 315.091 11.8675Z" fill="white"/>
</g>
<defs>
<clipPath id="clip0_28_114">
<rect width="500" height="342.33" fill="white"/>
</clipPath>
</defs>
</svg>
