<svg width="44" height="44" viewBox="0 0 44 44" fill="none" xmlns="http://www.w3.org/2000/svg">
<path d="M22.0019 16.5003C20.5432 16.5003 19.1443 17.0798 18.1128 18.1112C17.0814 19.1427 16.5019 20.5416 16.5019 22.0003C16.5019 23.459 17.0814 24.858 18.1128 25.8894C19.1443 26.9209 20.5432 27.5003 22.0019 27.5003C23.4606 27.5003 24.8596 26.9209 25.891 25.8894C26.9225 24.858 27.5019 23.459 27.5019 22.0003C27.5019 20.5416 26.9225 19.1427 25.891 18.1112C24.8596 17.0798 23.4606 16.5003 22.0019 16.5003ZM22.0019 12.8337C24.4331 12.8337 26.7646 13.7994 28.4837 15.5185C30.2028 17.2376 31.1686 19.5692 31.1686 22.0003C31.1686 24.4315 30.2028 26.7631 28.4837 28.4821C26.7646 30.2012 24.4331 31.167 22.0019 31.167C19.5708 31.167 17.2392 30.2012 15.5201 28.4821C13.801 26.7631 12.8352 24.4315 12.8352 22.0003C12.8352 19.5692 13.801 17.2376 15.5201 15.5185C17.2392 13.7994 19.5708 12.8337 22.0019 12.8337ZM33.9186 12.3753C33.9186 12.9831 33.6771 13.566 33.2474 13.9958C32.8176 14.4255 32.2347 14.667 31.6269 14.667C31.0191 14.667 30.4362 14.4255 30.0065 13.9958C29.5767 13.566 29.3352 12.9831 29.3352 12.3753C29.3352 11.7675 29.5767 11.1846 30.0065 10.7549C30.4362 10.3251 31.0191 10.0837 31.6269 10.0837C32.2347 10.0837 32.8176 10.3251 33.2474 10.7549C33.6771 11.1846 33.9186 11.7675 33.9186 12.3753ZM22.0019 7.33366C17.4662 7.33366 16.7256 7.34649 14.6154 7.43999C13.1781 7.50783 12.2137 7.70033 11.3191 8.04866C10.5704 8.32354 9.89351 8.76414 9.33908 9.33749C8.76526 9.89189 8.32406 10.5687 8.04841 11.3175C7.70008 12.2158 7.50758 13.1783 7.44158 14.6138C7.34625 16.6378 7.33341 17.3455 7.33341 22.0003C7.33341 26.5378 7.34625 27.2767 7.43975 29.3868C7.50758 30.8223 7.70008 31.7885 8.04658 32.6813C8.35825 33.4788 8.72491 34.0527 9.33358 34.6613C9.95142 35.2773 10.5252 35.6458 11.3136 35.9502C12.2192 36.3003 13.1836 36.4947 14.6136 36.5607C16.6376 36.656 17.3452 36.667 22.0001 36.667C26.5376 36.667 27.2764 36.6542 29.3866 36.5607C30.8202 36.4928 31.7846 36.3003 32.6811 35.9538C33.4291 35.6776 34.1057 35.2372 34.6611 34.665C35.2789 34.049 35.6474 33.4752 35.9518 32.685C36.3001 31.783 36.4944 30.8187 36.5604 29.385C36.6557 27.3628 36.6667 26.6533 36.6667 22.0003C36.6667 17.4647 36.6539 16.724 36.5604 14.6138C36.4926 13.1802 36.2983 12.2122 35.9518 11.3175C35.6754 10.5695 35.235 9.89296 34.6629 9.33749C34.1088 8.76338 33.4318 8.32213 32.6829 8.04683C31.7846 7.69849 30.8202 7.50599 29.3866 7.43999C27.3644 7.34466 26.6567 7.33366 22.0001 7.33366M22.0001 3.66699C26.9812 3.66699 27.6027 3.68533 29.5589 3.77699C31.5096 3.86866 32.8406 4.17483 34.0084 4.62949C35.2184 5.09516 36.2378 5.72583 37.2571 6.74333C38.1893 7.6598 38.9107 8.7684 39.3709 9.99199C39.8237 11.1598 40.1317 12.4908 40.2234 14.4433C40.3096 16.3977 40.3334 17.0192 40.3334 22.0003C40.3334 26.9815 40.3151 27.603 40.2234 29.5573C40.1317 31.5098 39.8237 32.839 39.3709 34.0087C38.9119 35.2329 38.1904 36.3418 37.2571 37.2573C36.3403 38.1892 35.2318 38.9105 34.0084 39.3712C32.8406 39.824 31.5096 40.132 29.5589 40.2237C27.6027 40.3098 26.9812 40.3337 22.0001 40.3337C17.0189 40.3337 16.3974 40.3153 14.4412 40.2237C12.4906 40.132 11.1614 39.824 9.99175 39.3712C8.76768 38.9119 7.65888 38.1904 6.74308 37.2573C5.81071 36.341 5.08934 35.2323 4.62925 34.0087C4.17458 32.8408 3.86841 31.5098 3.77675 29.5573C3.68875 27.603 3.66675 26.9815 3.66675 22.0003C3.66675 17.0192 3.68508 16.3977 3.77675 14.4433C3.86841 12.4908 4.17458 11.1617 4.62925 9.99199C5.08801 8.76765 5.80955 7.65875 6.74308 6.74333C7.65914 5.81058 8.76787 5.08916 9.99175 4.62949C11.1596 4.17483 12.4887 3.86866 14.4412 3.77699C16.3992 3.69083 17.0207 3.66699 22.0019 3.66699" fill="white"/>
</svg>
