<svg width="40" height="40" viewBox="0 0 40 40" fill="none" xmlns="http://www.w3.org/2000/svg">
<g clip-path="url(#clip0_441_161)">
<path d="M30 5C31.3261 5 32.5979 5.52678 33.5355 6.46447C34.4732 7.40215 35 8.67392 35 10V30C35 31.3261 34.4732 32.5979 33.5355 33.5355C32.5979 34.4732 31.3261 35 30 35H10C8.67392 35 7.40215 34.4732 6.46447 33.5355C5.52678 32.5979 5 31.3261 5 30V10C5 8.67392 5.52678 7.40215 6.46447 6.46447C7.40215 5.52678 8.67392 5 10 5H30ZM30 8.33333H10C9.55797 8.33333 9.13405 8.50893 8.82149 8.82149C8.50893 9.13405 8.33333 9.55797 8.33333 10V30C8.33333 30.442 8.50893 30.866 8.82149 31.1785C9.13405 31.4911 9.55797 31.6667 10 31.6667H30C30.442 31.6667 30.866 31.4911 31.1785 31.1785C31.4911 30.866 31.6667 30.442 31.6667 30V10C31.6667 9.55797 31.4911 9.13405 31.1785 8.82149C30.866 8.50893 30.442 8.33333 30 8.33333ZM13.3333 16.6667C13.7416 16.6667 14.1356 16.8166 14.4406 17.0879C14.7457 17.3591 14.9406 17.7329 14.9883 18.1383L15 18.3333V26.6667C14.9995 27.0915 14.8369 27.5001 14.5453 27.8089C14.2536 28.1178 13.8551 28.3037 13.431 28.3286C13.0069 28.3535 12.5894 28.2155 12.2636 27.9429C11.9379 27.6702 11.7285 27.2835 11.6783 26.8617L11.6667 26.6667V18.3333C11.6667 17.8913 11.8423 17.4674 12.1548 17.1548C12.4674 16.8423 12.8913 16.6667 13.3333 16.6667ZM18.3333 15C18.7237 14.9999 19.1016 15.1369 19.4013 15.3869C19.701 15.637 19.9035 15.9843 19.9733 16.3683C20.3087 16.1739 20.6554 15.9996 21.0117 15.8467C22.1233 15.3717 23.7883 15.11 25.2917 15.5817C26.08 15.8317 26.8717 16.2983 27.4583 17.0933C27.9833 17.8017 28.2667 18.6633 28.3233 19.6317L28.3333 20V26.6667C28.3329 27.0915 28.1702 27.5001 27.8786 27.8089C27.587 28.1178 27.1884 28.3037 26.7643 28.3286C26.3403 28.3535 25.9227 28.2155 25.5969 27.9429C25.2712 27.6702 25.0618 27.2835 25.0117 26.8617L25 26.6667V20C25 19.45 24.8667 19.1933 24.78 19.075C24.6556 18.9203 24.4842 18.8103 24.2917 18.7617C23.7117 18.5783 22.8767 18.675 22.3217 18.9117C21.4883 19.2683 20.725 19.8283 20.205 20.3467L20 20.5667V26.6667C19.9995 27.0915 19.8369 27.5001 19.5453 27.8089C19.2536 28.1178 18.8551 28.3037 18.431 28.3286C18.0069 28.3535 17.5894 28.2155 17.2636 27.9429C16.9379 27.6702 16.7285 27.2835 16.6783 26.8617L16.6667 26.6667V16.6667C16.6667 16.2246 16.8423 15.8007 17.1548 15.4882C17.4674 15.1756 17.8913 15 18.3333 15ZM13.3333 11.6667C13.7754 11.6667 14.1993 11.8423 14.5118 12.1548C14.8244 12.4674 15 12.8913 15 13.3333C15 13.7754 14.8244 14.1993 14.5118 14.5118C14.1993 14.8244 13.7754 15 13.3333 15C12.8913 15 12.4674 14.8244 12.1548 14.5118C11.8423 14.1993 11.6667 13.7754 11.6667 13.3333C11.6667 12.8913 11.8423 12.4674 12.1548 12.1548C12.4674 11.8423 12.8913 11.6667 13.3333 11.6667Z" fill="white"/>
</g>
<defs>
<clipPath id="clip0_441_161">
<rect width="40" height="40" fill="white"/>
</clipPath>
</defs>
</svg>
