<svg width="40" height="40" viewBox="0 0 40 40" fill="none" xmlns="http://www.w3.org/2000/svg">
<path d="M20 21.666C22.7614 21.666 25 19.4274 25 16.666C25 13.9046 22.7614 11.666 20 11.666C17.2386 11.666 15 13.9046 15 16.666C15 19.4274 17.2386 21.666 20 21.666Z" stroke="white" stroke-width="2" stroke-linecap="round" stroke-linejoin="round"/>
<path d="M20.0001 3.33301C16.4639 3.33301 13.0725 4.73777 10.572 7.23825C8.07151 9.73874 6.66675 13.1301 6.66675 16.6663C6.66675 19.8197 7.33675 21.883 9.16675 24.1663L20.0001 36.6663L30.8334 24.1663C32.6634 21.883 33.3334 19.8197 33.3334 16.6663C33.3334 13.1301 31.9287 9.73874 29.4282 7.23825C26.9277 4.73777 23.5363 3.33301 20.0001 3.33301Z" stroke="white" stroke-width="2" stroke-linecap="round" stroke-linejoin="round"/>
</svg>
