<svg width="82" height="82" viewBox="0 0 82 82" fill="none" xmlns="http://www.w3.org/2000/svg">
<path fill-rule="evenodd" clip-rule="evenodd" d="M61.5 66.3333C63.688 66.3333 65.7865 65.4641 67.3336 63.9169C68.8808 62.3697 69.75 60.2713 69.75 58.0833V23.9166C69.75 21.7285 68.8808 19.6301 67.3336 18.083C65.7865 16.5358 63.688 15.6666 61.5 15.6666H47.8333C45.6453 15.6666 43.5469 16.5358 41.9997 18.083C40.4525 19.6301 39.5833 21.7285 39.5833 23.9166V27.3333C39.5833 28.4378 38.6879 29.3333 37.5833 29.3333C36.4788 29.3333 35.5833 28.4378 35.5833 27.3333V23.9166C35.5833 20.6677 36.874 17.5518 39.1713 15.2545C41.4686 12.9572 44.5844 11.6666 47.8333 11.6666H61.5C64.7489 11.6666 67.8647 12.9572 70.1621 15.2545C72.4594 17.5518 73.75 20.6677 73.75 23.9166V58.0833C73.75 61.3322 72.4594 64.448 70.1621 66.7453C67.8647 69.0426 64.7489 70.3333 61.5 70.3333H47.8333C44.5844 70.3333 41.4686 69.0426 39.1713 66.7453C36.874 64.448 35.5833 61.3322 35.5833 58.0833V54.6666C35.5833 53.562 36.4788 52.6666 37.5833 52.6666C38.6879 52.6666 39.5833 53.562 39.5833 54.6666V58.0833C39.5833 60.2713 40.4525 62.3697 41.9997 63.9169C43.5469 65.4641 45.6453 66.3333 47.8333 66.3333H61.5ZM25.3309 56.0808C24.5498 56.8618 23.2835 56.8618 22.5025 56.0808L8.83578 42.4141C8.46071 42.0391 8.25 41.5304 8.25 40.9999C8.25 40.4695 8.46071 39.9608 8.83578 39.5857L22.5025 25.919C23.2835 25.138 24.5498 25.138 25.3309 25.919C26.1119 26.7001 26.1119 27.9664 25.3309 28.7475L15.0784 38.9999L58.0833 38.9999C59.1879 38.9999 60.0833 39.8953 60.0833 40.9999C60.0833 42.1045 59.1879 42.9999 58.0833 42.9999L15.0784 42.9999L25.3309 53.2524C26.1119 54.0334 26.1119 55.2998 25.3309 56.0808Z" fill="black"/>
</svg>
