<svg width="60" height="58" viewBox="0 0 60 58" fill="none" xmlns="http://www.w3.org/2000/svg">
<path d="M23.125 31.1999C23.125 33.8519 20.8875 35.9999 18.125 35.9999C15.3625 35.9999 13.125 33.8519 13.125 31.1999C13.125 28.5479 15.3625 26.3999 18.125 26.3999C20.8875 26.3999 23.125 28.5479 23.125 31.1999Z" fill="black"/>
<path fill-rule="evenodd" clip-rule="evenodd" d="M18.125 33.5999C18.788 33.5999 19.4239 33.347 19.8928 32.897C20.3616 32.4469 20.625 31.8364 20.625 31.1999C20.625 30.5634 20.3616 29.9529 19.8928 29.5028C19.4239 29.0528 18.788 28.7999 18.125 28.7999C17.462 28.7999 16.8261 29.0528 16.3572 29.5028C15.8884 29.9529 15.625 30.5634 15.625 31.1999C15.625 31.8364 15.8884 32.4469 16.3572 32.897C16.8261 33.347 17.462 33.5999 18.125 33.5999ZM18.125 35.9999C20.8875 35.9999 23.125 33.8519 23.125 31.1999C23.125 28.5479 20.8875 26.3999 18.125 26.3999C15.3625 26.3999 13.125 28.5479 13.125 31.1999C13.125 33.8519 15.3625 35.9999 18.125 35.9999Z" fill="black"/>
<path d="M7.5 43.8551C7.5 40.2263 14.5788 38.3999 18.125 38.3999C21.6712 38.3999 28.75 40.2275 28.75 43.8539V50.3999H7.5V43.8551Z" fill="black"/>
<path fill-rule="evenodd" clip-rule="evenodd" d="M10.4175 43.1795C10.0225 43.5539 10 43.7687 10 43.8551V47.9999H26.25V43.8539C26.25 43.7699 26.2275 43.5539 25.8325 43.1795C25.415 42.7847 24.7262 42.3611 23.7825 41.9735C21.8825 41.1923 19.5625 40.7999 18.125 40.7999C16.6875 40.7999 14.3663 41.1923 12.4675 41.9735C11.5237 42.3611 10.835 42.7847 10.4175 43.1795ZM18.125 38.3999C14.5788 38.3999 7.5 40.2275 7.5 43.8539V50.3999H28.75V43.8539C28.75 40.2287 21.6712 38.3999 18.125 38.3999Z" fill="black"/>
<path d="M46.875 31.1999C46.875 33.8519 44.6375 35.9999 41.875 35.9999C39.1125 35.9999 36.875 33.8519 36.875 31.1999C36.875 28.5479 39.1125 26.3999 41.875 26.3999C44.6375 26.3999 46.875 28.5479 46.875 31.1999Z" fill="black"/>
<path fill-rule="evenodd" clip-rule="evenodd" d="M41.875 33.5999C42.538 33.5999 43.1739 33.347 43.6428 32.897C44.1116 32.4469 44.375 31.8364 44.375 31.1999C44.375 30.5634 44.1116 29.9529 43.6428 29.5028C43.1739 29.0528 42.538 28.7999 41.875 28.7999C41.212 28.7999 40.5761 29.0528 40.1072 29.5028C39.6384 29.9529 39.375 30.5634 39.375 31.1999C39.375 31.8364 39.6384 32.4469 40.1072 32.897C40.5761 33.347 41.212 33.5999 41.875 33.5999ZM41.875 35.9999C44.6375 35.9999 46.875 33.8519 46.875 31.1999C46.875 28.5479 44.6375 26.3999 41.875 26.3999C39.1125 26.3999 36.875 28.5479 36.875 31.1999C36.875 33.8519 39.1125 35.9999 41.875 35.9999Z" fill="black"/>
<path d="M35 28.8C35 31.452 32.7625 33.6 30 33.6C27.2375 33.6 25 31.452 25 28.8C25 26.148 27.2375 24 30 24C32.7625 24 35 26.148 35 28.8Z" fill="black"/>
<path fill-rule="evenodd" clip-rule="evenodd" d="M30 31.2C30.663 31.2 31.2989 30.9471 31.7678 30.4971C32.2366 30.047 32.5 29.4365 32.5 28.8C32.5 28.1635 32.2366 27.553 31.7678 27.1029C31.2989 26.6529 30.663 26.4 30 26.4C29.337 26.4 28.7011 26.6529 28.2322 27.1029C27.7634 27.553 27.5 28.1635 27.5 28.8C27.5 29.4365 27.7634 30.047 28.2322 30.4971C28.7011 30.9471 29.337 31.2 30 31.2ZM30 33.6C32.7625 33.6 35 31.452 35 28.8C35 26.148 32.7625 24 30 24C27.2375 24 25 26.148 25 28.8C25 31.452 27.2375 33.6 30 33.6Z" fill="black"/>
<path d="M28.7503 15.3996C28.7503 13.8614 28.1138 12.3863 26.9808 11.2986C25.8479 10.211 24.3113 9.59995 22.709 9.59995H18.7478C17.1087 9.59742 15.5342 10.2134 14.3639 11.315C13.1935 12.4166 12.5209 13.9157 12.4913 15.4889C12.4616 17.0622 13.0771 18.5836 14.2052 19.7252C15.3332 20.8668 16.8834 21.5371 18.5215 21.5916L18.7503 21.6V24C18.7503 24 28.7503 22.5996 28.7503 15.3996ZM32.5003 13.4832C32.5003 11.8167 33.1898 10.2186 34.4173 9.04026C35.6447 7.86193 37.3094 7.19995 39.0453 7.19995H46.2503C47.9079 7.19995 49.4976 7.83209 50.6697 8.95731C51.8418 10.0825 52.5003 11.6087 52.5003 13.2C52.5003 14.7912 51.8418 16.3174 50.6697 17.4426C49.4976 18.5678 47.9079 19.2 46.2503 19.2H43.7503V22.8C43.7503 22.8 32.5003 21.2832 32.5003 13.4832ZM31.2503 43.8552C31.2503 40.2264 38.329 38.4 41.8753 38.4C45.4215 38.4 52.5003 40.2275 52.5003 43.8539V50.3999H31.2503V43.8552Z" fill="black"/>
<path fill-rule="evenodd" clip-rule="evenodd" d="M34.1679 43.1796C33.7729 43.554 33.7504 43.7688 33.7504 43.8552V48H50.0004V43.854C50.0004 43.77 49.9779 43.554 49.5829 43.1796C49.1654 42.7848 48.4766 42.3612 47.5329 41.9736C45.6329 41.1924 43.3129 40.8 41.8754 40.8C40.4379 40.8 38.1166 41.1924 36.2179 41.9736C35.2741 42.3612 34.5854 42.7848 34.1679 43.1796ZM41.8754 38.4C38.3291 38.4 31.2504 40.2276 31.2504 43.854V50.4H52.5004V43.854C52.5004 40.2288 45.4216 38.4 41.8754 38.4ZM30.0004 41.454C30.0004 39.4416 27.6916 37.9824 24.9941 37.0824C26.5594 36.3719 28.2689 36.0023 30.0004 36C31.7318 36.0023 33.4413 36.3719 35.0066 37.0824C32.3091 37.9824 30.0004 39.4416 30.0004 41.454Z" fill="black"/>
<path fill-rule="evenodd" clip-rule="evenodd" d="M30.0004 41.454C30.0004 40.3824 30.6554 39.4668 31.6754 38.7096L31.8516 38.5836C32.7229 37.9764 33.8266 37.476 35.0066 37.0836C33.8358 36.5537 32.5826 36.2112 31.2966 36.0696C30.4352 35.9768 29.5656 35.9768 28.7041 36.0696C27.4182 36.2108 26.1651 36.553 24.9941 37.0824C26.1729 37.476 27.2779 37.9764 28.1479 38.5824C28.2079 38.624 28.2666 38.6664 28.3241 38.7096C29.3454 39.4656 30.0004 40.3824 30.0004 41.454Z" fill="black"/>
</svg>
