<svg width="96" height="96" viewBox="0 0 96 96" fill="none" xmlns="http://www.w3.org/2000/svg">
<path d="M21.3333 96V85.3333H42.6667V68.8C38.3111 67.8222 34.4231 65.9787 31.0027 63.2693C27.5822 60.56 25.0702 57.1591 23.4667 53.0667C16.8 52.2667 11.2231 49.3564 6.736 44.336C2.24889 39.3156 0.00355555 33.4258 0 26.6667V21.3333C0 18.4 1.04533 15.8898 3.136 13.8027C5.22667 11.7156 7.73689 10.6702 10.6667 10.6667H21.3333V0H74.6667V10.6667H85.3333C88.2667 10.6667 90.7787 11.712 92.8693 13.8027C94.96 15.8933 96.0035 18.4036 96 21.3333V26.6667C96 33.4222 93.7547 39.312 89.264 44.336C84.7733 49.36 79.1964 52.2702 72.5333 53.0667C70.9333 57.1556 68.4231 60.5564 65.0027 63.2693C61.5822 65.9822 57.6924 67.8258 53.3333 68.8V85.3333H74.6667V96H21.3333ZM21.3333 41.6V21.3333H10.6667V26.6667C10.6667 30.0444 11.6444 33.0898 13.6 35.8027C15.5556 38.5156 18.1333 40.448 21.3333 41.6ZM74.6667 41.6C77.8667 40.4444 80.4444 38.5102 82.4 35.7973C84.3555 33.0844 85.3333 30.0409 85.3333 26.6667V21.3333H74.6667V41.6Z" fill="black"/>
</svg>
