<svg width="500" height="460" viewBox="0 0 500 460" fill="none" xmlns="http://www.w3.org/2000/svg">
<path d="M0 9.09732V18.2652L45.6982 51.1989C101.269 91.3963 111.918 98.4485 136.812 111.636C172.849 130.607 195.98 137.236 231.876 138.646L243.3 139.14V69.5346V1.36346e-06H121.65H0V9.09732Z" fill="white"/>
<path d="M256.699 69.6051V139.14L268.194 138.717C301.974 137.306 320.733 132.37 353.949 115.938C383.568 101.34 394.005 94.6403 454.866 50.6347L500 18.0536V9.0268V1.36346e-06H378.349H256.699V69.6051Z" fill="white"/>
<path d="M0 142.736V250.353L121.509 250.211L242.948 250L243.089 201.481C243.23 174.824 243.018 153.032 242.736 152.962C240.127 152.68 235.825 152.398 227.363 152.045C208.815 151.269 192.948 148.731 177.856 144.147C154.866 137.165 118.195 118.547 89.3512 99.1537C84.6262 95.9802 62.9055 80.4654 41.1848 64.739C19.3935 49.0126 1.19887 35.9661 0.775741 35.684C0.211566 35.3314 0 63.3991 0 142.736Z" fill="white"/>
<path d="M460.86 63.1875C406.629 102.327 396.05 109.379 372.708 121.721C330.465 144.076 307.828 150.705 269.252 152.116L256.699 152.539V201.481V250.353H377.997C474.4 250.353 499.435 250.141 499.647 249.436C499.859 249.013 499.929 200.564 499.859 141.89L499.647 35.1198L460.86 63.1875Z" fill="white"/>
<path d="M69.2526 368.265C69.5347 416.079 69.5347 417.278 71.0861 422.779C76.7279 443.23 89.6334 454.584 111.848 458.745C120.945 460.508 142.595 459.944 150.564 457.757C173.554 451.622 185.966 436.46 188.293 411.707C188.787 406.77 188.999 387.8 188.858 361.777L188.646 319.817L172.638 319.605L156.559 319.464V362.976C156.559 388.082 156.206 408.604 155.853 411.425C155.007 416.996 152.609 423.484 150.141 426.516C140.48 438.434 115.585 437.87 107.123 425.458C104.02 421.016 102.186 415.233 101.763 409.027C101.622 406.135 101.411 384.838 101.34 361.777L101.199 319.817L85.12 319.605L69.041 319.464L69.2526 368.265Z" fill="white"/>
<path d="M340.621 388.858V458.392H369.535C385.473 458.392 401.552 458.039 405.29 457.616C428.491 455.078 443.23 444.358 446.756 427.574C450.988 407.687 441.467 391.255 422.779 386.107C420.452 385.472 418.054 384.767 417.49 384.556C416.855 384.344 417.984 383.639 420.311 382.793C428.491 379.69 434.627 374.118 437.518 367.066C439.352 362.694 440.268 354.584 439.493 349.577C438.223 341.608 436.037 337.236 430.96 332.087C425.6 326.798 420.17 323.836 411.072 321.439C405.501 320.028 403.386 319.887 372.92 319.676L340.621 319.393V388.858ZM398.449 343.724C402.257 345.134 404.443 347.109 406.347 350.776C408.463 354.936 407.969 363.258 405.36 367.207C401.905 372.426 394.429 374.471 378.914 374.471H372.356V358.181V341.89L383.851 342.172C392.102 342.454 396.122 342.877 398.449 343.724ZM405.501 400.635C412.412 403.597 416.079 410.437 415.092 418.688C414.246 426.023 410.579 430.606 403.668 433.145C400.142 434.415 397.462 434.697 385.967 434.979L372.356 435.331V416.925V398.519L381.735 398.307C393.865 398.025 401.129 398.731 405.501 400.635Z" fill="white"/>
<path d="M268.265 351.058C259.45 353.667 252.045 359.732 248.378 367.489L246.333 371.791L245.839 366.291C244.782 354.161 244.57 352.257 244.076 351.693C243.794 351.41 237.095 351.269 229.126 351.34L214.739 351.551V355.571C214.81 357.828 214.88 381.876 214.951 409.027L215.092 458.392L230.818 458.251L246.474 458.039L246.827 424.542C247.179 392.172 247.25 390.903 248.731 386.883C250.635 381.805 253.103 378.491 256.911 376.023C259.38 374.401 260.578 374.118 265.797 373.907C271.086 373.766 272.215 373.907 274.683 375.317C279.126 377.927 281.312 382.017 282.37 389.633C282.581 391.185 282.722 407.264 282.793 425.388V458.392H298.66H314.528V420.451C314.528 397.602 314.246 380.818 313.752 378.068C311.566 364.527 305.078 355.642 294.358 351.834C288.435 349.647 274.401 349.295 268.265 351.058Z" fill="white"/>
</svg>
